<svg width="40" height="40" viewBox="0 0 40 40" fill="none" xmlns="http://www.w3.org/2000/svg">
    <rect width="40" height="40" fill="#162534" rx="5"/>

    <defs>
        <linearGradient id="paint_linear" gradientUnits="userSpaceOnUse">
            <stop offset="0" stop-color="#3BEA62"/>
            <stop offset="0.8" stop-color="#3C99CC"/>
        </linearGradient>
    </defs>

    <svg x="9" y="10" height="22" width="22" viewBox="0 0 490 490">
        <path fill="url(#paint_linear)" d="M245,0C109.69,0,0,109.69,0,245s109.69,245,245,245s245-109.69,245-245S380.31,0,245,0z M31.401,260.313h52.542
	c1.169,25.423,5.011,48.683,10.978,69.572H48.232C38.883,308.299,33.148,284.858,31.401,260.313z M320.58,229.688
	c-1.152-24.613-4.07-47.927-8.02-69.572h50.192c6.681,20.544,11.267,43.71,12.65,69.572H320.58z M206.38,329.885
	c-4.322-23.863-6.443-47.156-6.836-69.572h90.913c-0.392,22.416-2.514,45.709-6.837,69.572H206.38z M276.948,360.51
	c-7.18,27.563-17.573,55.66-31.951,83.818c-14.376-28.158-24.767-56.255-31.946-83.818H276.948z M199.961,229.688
	c1.213-24.754,4.343-48.08,8.499-69.572h73.08c4.157,21.492,7.286,44.818,8.5,69.572H199.961z M215.342,129.492
	c9.57-37.359,21.394-66.835,29.656-84.983c8.263,18.148,20.088,47.624,29.66,84.983H215.342z M306.07,129.492
	c-9.77-40.487-22.315-73.01-31.627-94.03c11.573,8.235,50.022,38.673,76.25,94.03H306.07z M215.553,35.46
	c-9.312,21.02-21.855,53.544-31.624,94.032h-44.628C165.532,74.13,203.984,43.692,215.553,35.46z M177.44,160.117
	c-3.95,21.645-6.867,44.959-8.019,69.572h-54.828c1.383-25.861,5.968-49.028,12.65-69.572H177.44z M83.976,229.688H31.401
	c1.747-24.545,7.481-47.984,16.83-69.572h46.902C89.122,181.002,85.204,204.246,83.976,229.688z M114.577,260.313h54.424
	c0.348,22.454,2.237,45.716,6.241,69.572h-47.983C120.521,309.288,115.92,286.115,114.577,260.313z M181.584,360.51
	c7.512,31.183,18.67,63.054,34.744,95.053c-10.847-7.766-50.278-38.782-77.013-95.053H181.584z M273.635,455.632
	c16.094-32.022,27.262-63.916,34.781-95.122h42.575C324.336,417.068,284.736,447.827,273.635,455.632z M314.759,329.885
	c4.005-23.856,5.894-47.118,6.241-69.572h54.434c-1.317,25.849-5.844,49.016-12.483,69.572H314.759z M406.051,260.313h52.548
	c-1.748,24.545-7.482,47.985-16.831,69.572h-46.694C401.041,308.996,404.882,285.736,406.051,260.313z M406.019,229.688
	c-1.228-25.443-5.146-48.686-11.157-69.572h46.908c9.35,21.587,15.083,45.026,16.83,69.572H406.019z M425.309,129.492h-41.242
	c-13.689-32.974-31.535-59.058-48.329-78.436C372.475,68.316,403.518,95.596,425.309,129.492z M154.252,51.06
	c-16.792,19.378-34.636,45.461-48.324,78.432H64.691C86.48,95.598,117.52,68.321,154.252,51.06z M64.692,360.51h40.987
	c13.482,32.637,31.076,58.634,47.752,78.034C117.059,421.262,86.318,394.148,64.692,360.51z M336.576,438.54
	c16.672-19.398,34.263-45.395,47.742-78.03h40.99C403.684,394.146,372.945,421.258,336.576,438.54z"/>
    </svg>

    <svg x="29" y="3" width="10" height="10" fill="#53A835"
         viewBox="0 0 1024 1024">
        <path transform="rotate(30)"
              d="M1022.06544 583.40119c0 11.0558-4.034896 20.61962-12.111852 28.696576-8.077979 8.077979-17.639752 12.117992-28.690436 12.117992L838.446445 624.215758c0 72.690556-14.235213 134.320195-42.718941 184.89915l132.615367 133.26312c8.076956 8.065699 12.117992 17.634636 12.117992 28.690436 0 11.050684-4.034896 20.614503-12.117992 28.691459-7.653307 8.065699-17.209964 12.106736-28.690436 12.106736-11.475356 0-21.040199-4.041036-28.690436-12.106736L744.717737 874.15318c-2.124384 2.118244-5.308913 4.88424-9.558703 8.283664-4.259 3.3984-13.180184 9.463536-26.78504 18.171871-13.598716 8.715499-27.415396 16.473183-41.439808 23.276123-14.029528 6.797823-31.462572 12.966313-52.289923 18.49319-20.827351 5.517667-41.446971 8.28571-61.842487 8.28571L552.801776 379.38668l-81.611739 0 0 571.277058c-21.668509 0-43.250036-2.874467-64.707744-8.615215-21.473057-5.734608-39.960107-12.749372-55.476499-21.039175-15.518438-8.289804-29.541827-16.572444-42.077328-24.867364-12.541641-8.290827-21.781072-15.193027-27.739784-20.714787l-9.558703-8.93244L154.95056 998.479767c-8.500605 8.921183-18.699897 13.386892-30.606065 13.386892-10.201339 0-19.335371-3.40454-27.409257-10.202363-8.079002-7.652284-12.437264-17.10968-13.080923-28.372188-0.633427-11.263531 2.659573-21.143553 9.893324-29.647227l128.787178-144.727219c-24.650423-48.464805-36.980239-106.699114-36.980239-174.710091L42.738895 624.207571c-11.057847 0-20.61655-4.041036-28.690436-12.111852-8.079002-8.082072-12.120039-17.640776-12.120039-28.696576 0-11.050684 4.041036-20.61962 12.120039-28.689413 8.073886-8.072863 17.632589-12.107759 28.690436-12.107759l142.81466 0L185.553555 355.156836l-110.302175-110.302175c-8.074909-8.077979-12.113899-17.640776-12.113899-28.691459 0-11.04966 4.044106-20.61962 12.113899-28.690436 8.071839-8.076956 17.638729-12.123109 28.691459-12.123109 11.056823 0 20.612457 4.052293 28.692482 12.123109l110.302175 110.302175 538.128077 0 110.303198-110.302175c8.070816-8.076956 17.632589-12.123109 28.690436-12.123109 11.050684 0 20.617573 4.052293 28.689413 12.123109 8.077979 8.070816 12.119015 17.640776 12.119015 28.690436 0 11.050684-4.041036 20.614503-12.119015 28.691459l-110.302175 110.302175 0 187.448206 142.815683 0c11.0558 0 20.618597 4.034896 28.690436 12.113899 8.076956 8.069793 12.117992 17.638729 12.117992 28.683273l0 0L1022.06544 583.40119 1022.06544 583.40119zM716.021162 216.158085 307.968605 216.158085c0-56.526411 19.871583-104.667851 59.616796-144.414087 39.733956-39.746236 87.88256-59.611679 144.411017-59.611679 56.529481 0 104.678084 19.865443 144.413064 59.611679C696.156742 111.48921 716.021162 159.631674 716.021162 216.158085L716.021162 216.158085 716.021162 216.158085 716.021162 216.158085z"/>
    </svg>

    <g transform="translate(-3,2)">
        <svg x="27" y="19.75" height="10" width="10" viewBox="0 0 94 94">
            <path fill="#53A835"
                  d="M71.8,43.5L30.6,21.8c-1.9-1-4.2-0.9-6,0.2c-1.6,1-2.6,2.7-2.6,4.5v41.3c0,1.8,1,3.5,2.6,4.5c1,0.6,2.1,0.9,3.2,0.9   c1,0,2-0.2,2.8-0.7l41.2-21.7c1.3-0.7,2.2-2.1,2.2-3.6C74,45.6,73.2,44.2,71.8,43.5z"/>
        </svg>
        <circle fill="none" stroke="white" stroke-width="1.25" cx="32" cy="25" r="4.75"/>
        <g transform="rotate(-38)">
            <rect fill="white" x="-2" y="38.5" width="6.5" height="1.5"/>
        </g>
    </g>
</svg>